<svg viewBox="-10 -5 1034 1034" xmlns="http://www.w3.org/2000/svg" xmlns:xlink="http://www.w3.org/1999/xlink" version="1.1" fill="#1f2937" stroke="#1f2937"><g id="SVGRepo_bgCarrier" stroke-width="0"></g><g id="SVGRepo_tracerCarrier" stroke-linecap="round" stroke-linejoin="round"></g><g id="SVGRepo_iconCarrier"> <path fill="#1f2937" d="M751 226q-39 0 -71 19t-51 51t-19 71l1 12l-271 138q-39 -33 -91 -33q-38 0 -70 18.5t-51 51t-19 70.5t19 70.5t51 51t70 18.5q47 0 84 -27l277 141v8q0 38 19 70.5t51 51t70.5 18.5t70.5 -18.5t51 -51t19 -70.5t-19 -70.5t-51 -51t-70 -18.5q-27 0 -51.5 9.5t-43.5 26.5 l-268 -136q2 -11 2 -22l-1 -12l271 -138q39 33 91 33q38 0 70 -19t51 -51t19 -70.5t-19 -70.5t-51 -51t-70 -19z"></path> </g></svg>
