<svg fill="1f2937" height="200px" width="200px" version="1.1" id="Layer_1" xmlns="http://www.w3.org/2000/svg" xmlns:xlink="http://www.w3.org/1999/xlink" viewBox="0 0 511.957 511.957" xml:space="preserve"><g id="SVGRepo_bgCarrier" stroke-width="0"></g><g id="SVGRepo_tracerCarrier" stroke-linecap="round" stroke-linejoin="round"></g><g id="SVGRepo_iconCarrier"> <g> <g> <path d="M458.624,191.979c-16.021,0-25.387,6.101-34.368,11.947c-3.499,2.261-7.701,2.325-11.264,0.192s-5.504-5.909-5.163-10.048 l8.107-97.216c0.256-2.965-0.768-5.909-2.773-8.107c-2.027-2.197-4.864-3.456-7.851-3.456h-95.701 c-7.829,0-14.997,4.267-18.752,11.136c-3.712,6.848-3.435,15.147,0.768,21.653c4.267,6.613,7.04,11.605,7.04,20.544 c0,17.643-19.136,32-42.667,32c-23.531,0-42.667-14.357-42.667-32c0-8.939,2.773-13.931,7.019-20.523 c4.224-6.549,4.501-14.848,0.789-21.675c-3.755-6.869-10.923-11.136-18.752-11.136h-95.723c-2.965,0-5.824,1.259-7.851,3.456 c-2.005,2.197-3.029,5.141-2.773,8.107l8.107,97.216c0.341,4.16-1.6,7.915-5.163,10.048c-3.584,2.133-7.808,2.048-12.011-0.683 c-8.256-5.355-17.621-11.456-33.643-11.456c-29.397,0-53.333,28.715-53.333,64s23.936,64,53.333,64 c16.021,0,25.387-6.101,34.368-11.947c3.499-2.261,7.701-2.325,11.264-0.192c3.563,2.133,5.504,5.909,5.163,10.048l-8.107,97.216 c-0.256,2.965,0.768,5.909,2.773,8.107c2.027,2.197,4.864,3.456,7.851,3.456h95.723c7.829,0,14.997-4.267,18.752-11.136 c3.712-6.848,3.435-15.147-0.768-21.653c-4.267-6.613-7.04-11.605-7.04-20.544c0-17.643,19.136-32,42.667-32 c23.531,0,42.667,14.357,42.667,32c0,8.939-2.773,13.931-7.019,20.523c-4.224,6.549-4.501,14.848-0.789,21.675 c3.755,6.869,10.923,11.136,18.752,11.136h95.723c2.987,0,5.824-1.259,7.829-3.456c2.005-2.197,3.029-5.141,2.773-8.107 l-8.107-97.216c-0.341-4.16,1.6-7.915,5.163-10.048c3.563-2.155,7.787-2.048,12.011,0.683 c8.256,5.355,17.621,11.456,33.643,11.456c29.397,0,53.333-28.715,53.333-64S488.021,191.979,458.624,191.979z M458.624,298.667 c-9.685,0-14.848-3.349-22.763-8.512c-10.325-6.72-23.275-6.933-33.813-0.619c-10.56,6.315-16.491,17.856-15.467,30.123 l7.125,85.675l-84.139,0.064c5.269-8.192,10.411-17.408,10.411-32.064c0-29.397-28.715-53.333-64-53.333s-64,23.936-64,53.333 c0,14.656,5.141,23.872,10.389,32h-84.117l7.125-85.675c1.024-12.267-4.907-23.808-15.467-30.123 c-10.56-6.336-23.531-6.08-34.603,1.131c-7.147,4.651-12.288,8-21.995,8c-17.643,0-32-19.136-32-42.667 c0-23.531,14.357-42.667,32-42.667c9.685,0,14.848,3.349,22.763,8.512c10.304,6.699,23.275,6.912,33.813,0.619 c10.56-6.315,16.491-17.856,15.467-30.123l-7.125-85.675l84.139-0.064c-5.269,8.192-10.411,17.408-10.411,32.064 c0,29.397,28.715,53.333,64,53.333s64-23.936,64-53.333c0-14.656-5.141-23.872-10.389-32h84.117l-7.125,85.675 c-1.024,12.267,4.907,23.808,15.467,30.123c10.539,6.293,23.488,6.059,34.603-1.131c7.147-4.651,12.288-8,21.995-8 c17.643,0,32,19.136,32,42.667C490.624,279.531,476.267,298.667,458.624,298.667z"></path> </g> </g> </g></svg>
