<svg version="1.1" xmlns="http://www.w3.org/2000/svg" viewBox="0 0 813.8658218383789 702.3000545501709" width="2441.5974655151367" height="2106.9001636505127" filter="invert(93%) hue-rotate(180deg)">
  <!-- svg-source:excalidraw -->
  
  <defs>
    <style class="style-fonts">
      @font-face {
        font-family: "Virgil";
        src: url("https://excalidraw.com/Virgil.woff2");
      }
      @font-face {
        font-family: "Cascadia";
        src: url("https://excalidraw.com/Cascadia.woff2");
      }
      @font-face {
        font-family: "Assistant";
        src: url("https://excalidraw.com/Assistant-Regular.woff2");
      }
    </style>
    
  </defs>
  <g stroke-linecap="round" transform="translate(10 231.80012702941895) rotate(0 88.49996566772461 117.0000247955322)"><path d="M1.92 -0.16 C55.68 -3.53, 112.1 -1.27, 177.02 3.35 M0.48 0.44 C38.88 -3.14, 78.87 -3.7, 176.55 -0.39 M173.84 1.34 C174.72 76.51, 179.53 158.04, 173.82 235.8 M177.17 0.82 C178.71 89.42, 178.29 177.01, 175.64 235.08 M179.38 231.24 C112.99 233.83, 54.21 236.72, -1.55 236.91 M178.19 235.67 C135.93 233.62, 97.2 233.64, 1.95 232 M-3.14 236.11 C-5.8 150.85, -5.68 68.37, 1.83 -2.26 M0.65 234.18 C-0.46 186.76, 2.27 139.54, 0.21 -0.35" stroke="#1fb2a6" stroke-width="4" fill="none"></path></g><g transform="translate(49.05398941040039 326.3001518249512) rotate(0 49.44597625732422 22.5)"><text x="49.44597625732422" y="0" font-family="Virgil, Segoe UI Emoji" font-size="36px" fill="#1fb2a6" text-anchor="middle" style="white-space: pre;" direction="ltr" dominant-baseline="text-before-edge">*.acid</text></g><g stroke-linecap="round" transform="translate(539.7500076293945 107.0001392364502) rotate(0 120.50003051757812 55.5)"><path d="M27.75 0 C102.86 -0.83, 174.42 -2.68, 213.25 0 M27.75 0 C72.2 0.11, 121.03 -0.4, 213.25 0 M213.25 0 C230.61 -3.11, 241.8 5.66, 241 27.75 M213.25 0 C234.79 4.09, 244.51 9.23, 241 27.75 M241 27.75 C238.12 45.72, 245.54 61.05, 241 83.25 M241 27.75 C241.54 40.9, 241.21 55.7, 241 83.25 M241 83.25 C243.53 105.17, 232.4 110.02, 213.25 111 M241 83.25 C245.25 97.24, 228.9 108.39, 213.25 111 M213.25 111 C157.17 111.1, 106.17 110.24, 27.75 111 M213.25 111 C155.74 110.99, 95.2 109, 27.75 111 M27.75 111 C9.53 112.1, -2.15 102.44, 0 83.25 M27.75 111 C6.88 111.68, 3.98 103.51, 0 83.25 M0 83.25 C-0.9 71.88, 0.46 53.74, 0 27.75 M0 83.25 C1.97 61.36, 0.59 39.49, 0 27.75 M0 27.75 C-3.37 5.79, 11.53 1.91, 27.75 0 M0 27.75 C-3.2 10.14, 13.07 4.17, 27.75 0" stroke="#1fb2a6" stroke-width="4" fill="none"></path></g><g transform="translate(560.794075012207 145.0001392364502) rotate(0 99.45596313476562 17.5)"><text x="99.45596313476562" y="0" font-family="Virgil, Segoe UI Emoji" font-size="28px" fill="#1fb2a6" text-anchor="middle" style="white-space: pre;" direction="ltr" dominant-baseline="text-before-edge">Prisma Schema</text></g><g stroke-linecap="round" transform="translate(540.5498123168945 236.00006675720215) rotate(0 117.5 55.5)"><path d="M27.75 0 C85.16 5.76, 141.75 1.54, 207.25 0 M27.75 0 C98.72 -0.44, 167.91 -1.36, 207.25 0 M207.25 0 C223.62 2.97, 234.46 6.55, 235 27.75 M207.25 0 C224.85 3.91, 232.92 7.94, 235 27.75 M235 27.75 C237.87 43.65, 238.27 52.41, 235 83.25 M235 27.75 C234.02 44.22, 237.73 59.37, 235 83.25 M235 83.25 C232.83 98.32, 225.27 113.98, 207.25 111 M235 83.25 C233.88 104.42, 227.33 113.91, 207.25 111 M207.25 111 C141.72 106.19, 66.33 107.85, 27.75 111 M207.25 111 C153.81 109.51, 102.91 109.08, 27.75 111 M27.75 111 C9.91 114.09, -0.34 104.15, 0 83.25 M27.75 111 C9.95 109.56, -3.87 102.07, 0 83.25 M0 83.25 C-1.47 65.67, 4.05 48.44, 0 27.75 M0 83.25 C-0.03 70.14, 0.65 53.64, 0 27.75 M0 27.75 C3.44 7.98, 10.52 3.24, 27.75 0 M0 27.75 C-1.09 9.79, 7.13 -3.88, 27.75 0" stroke="#1fb2a6" stroke-width="4" fill="none"></path></g><g transform="translate(575.855842590332 274.00006675720215) rotate(0 82.1939697265625 17.5)"><text x="82.1939697265625" y="0" font-family="Virgil, Segoe UI Emoji" font-size="28px" fill="#1fb2a6" text-anchor="middle" style="white-space: pre;" direction="ltr" dominant-baseline="text-before-edge">Zod Schema</text></g><g stroke-linecap="round" transform="translate(543.749885559082 372.60011863708496) rotate(0 117.5 55.5)"><path d="M27.75 0 C68.31 -1.21, 105.26 0.17, 207.25 0 M27.75 0 C96.82 -0.84, 162.52 2.92, 207.25 0 M207.25 0 C224.97 3.77, 232.38 7.12, 235 27.75 M207.25 0 C229.17 -0.62, 231.9 8.35, 235 27.75 M235 27.75 C231.39 49.91, 230.91 73.12, 235 83.25 M235 27.75 C235.24 50.99, 234.64 69.03, 235 83.25 M235 83.25 C238.01 105.38, 229.12 108.83, 207.25 111 M235 83.25 C231.06 101.2, 229.18 109.88, 207.25 111 M207.25 111 C146.41 113.92, 77.74 116.96, 27.75 111 M207.25 111 C170.87 110.7, 133 108.08, 27.75 111 M27.75 111 C12.64 112.55, 2.53 102.41, 0 83.25 M27.75 111 C12.81 110.61, 2.76 102.45, 0 83.25 M0 83.25 C2.03 66.19, 1.63 51.35, 0 27.75 M0 83.25 C-1.61 64.28, 0.13 47.45, 0 27.75 M0 27.75 C3.48 8.87, 9.44 3.44, 27.75 0 M0 27.75 C-1.46 10.72, 12.97 -1.09, 27.75 0" stroke="#1fb2a6" stroke-width="4" fill="none"></path></g><g transform="translate(567.9539337158203 410.60011863708496) rotate(0 93.29595184326172 17.5)"><text x="93.29595184326172" y="0" font-family="Virgil, Segoe UI Emoji" font-size="28px" fill="#1fb2a6" text-anchor="middle" style="white-space: pre;" direction="ltr" dominant-baseline="text-before-edge">GraphQL SDL</text></g><g stroke-linecap="round"><g transform="translate(434.6151751679603 371.55689057689875) rotate(0 50.717425385990566 -107.74753433414661)"><path d="M-0.36 0.29 C16.59 -35.5, 83.52 -179.28, 100.57 -215.18" stroke="#1fb2a6" stroke-width="4.5" fill="none" stroke-dasharray="8 12"></path></g><g transform="translate(434.6151751679603 371.55689057689875) rotate(0 50.717425385990566 -107.74753433414661)"><path d="M98.33 -190.28 C99.36 -196.76, 99.84 -199.5, 100.57 -215.18" stroke="#1fb2a6" stroke-width="4.5" fill="none"></path></g><g transform="translate(434.6151751679603 371.55689057689875) rotate(0 50.717425385990566 -107.74753433414661)"><path d="M82.85 -197.55 C86.99 -202.51, 90.61 -203.77, 100.57 -215.18" stroke="#1fb2a6" stroke-width="4.5" fill="none"></path></g></g><mask></mask><g stroke-linecap="round"><g transform="translate(427.3716425563057 376.5603051588859) rotate(0 55.93912150138817 -47.07061189413773)"><path d="M1.12 0.56 C19.86 -15.09, 94.18 -77.58, 112.6 -93.28" stroke="#1fb2a6" stroke-width="4.5" fill="none" stroke-dasharray="8 12"></path></g><g transform="translate(427.3716425563057 376.5603051588859) rotate(0 55.93912150138817 -47.07061189413773)"><path d="M100.18 -71.58 C104.85 -77.21, 109.19 -85.56, 112.6 -93.28" stroke="#1fb2a6" stroke-width="4.5" fill="none"></path></g><g transform="translate(427.3716425563057 376.5603051588859) rotate(0 55.93912150138817 -47.07061189413773)"><path d="M89.14 -84.64 C97.29 -86.33, 105.06 -90.64, 112.6 -93.28" stroke="#1fb2a6" stroke-width="4.5" fill="none"></path></g></g><mask></mask><g stroke-linecap="round"><g transform="translate(435.18231054934597 372.80810164088496) rotate(0 52.083744780258655 17.065323690673438)"><path d="M0.99 0.96 C18.27 6.54, 86.8 28.07, 104.08 33.62" stroke="#1fb2a6" stroke-width="4.5" fill="none" stroke-dasharray="8 12"></path></g><g transform="translate(435.18231054934597 372.80810164088496) rotate(0 52.083744780258655 17.065323690673438)"><path d="M79.1 34.66 C89.1 33.95, 95.06 34.54, 104.08 33.62" stroke="#1fb2a6" stroke-width="4.5" fill="none"></path></g><g transform="translate(435.18231054934597 372.80810164088496) rotate(0 52.083744780258655 17.065323690673438)"><path d="M84.27 18.36 C92.55 23.18, 96.77 29.26, 104.08 33.62" stroke="#1fb2a6" stroke-width="4.5" fill="none"></path></g></g><mask></mask><g stroke-linecap="round" transform="translate(550.549934387207 517.0000972747803) rotate(0 117.5 55.5)"><path d="M27.75 0 C91.04 2.33, 147.67 0.22, 207.25 0 M27.75 0 C90.44 1.51, 154.7 2.44, 207.25 0 M207.25 0 C222.34 -0.35, 231.28 8.89, 235 27.75 M207.25 0 C229.58 1.09, 230.8 12.2, 235 27.75 M235 27.75 C238.08 40.53, 236.46 57.06, 235 83.25 M235 27.75 C232.28 45.18, 234.67 63.68, 235 83.25 M235 83.25 C234.12 102.01, 223.14 107.01, 207.25 111 M235 83.25 C239.54 104.18, 225.62 107.23, 207.25 111 M207.25 111 C144.75 115.75, 84.76 108.71, 27.75 111 M207.25 111 C150.81 111.25, 94.4 110.48, 27.75 111 M27.75 111 C8.31 109.83, 2.25 102, 0 83.25 M27.75 111 C11.12 109.41, -3.8 98.75, 0 83.25 M0 83.25 C-1.34 65.08, -3.14 42.98, 0 27.75 M0 83.25 C0.17 70.96, -1.27 54.29, 0 27.75 M0 27.75 C2.53 10, 8.36 -0.23, 27.75 0 M0 27.75 C1.65 8.41, 8.4 -2.16, 27.75 0" stroke="#1fb2a6" stroke-width="4" fill="none"></path></g><g transform="translate(581.9779663085938 555.0000972747803) rotate(0 86.07196807861328 17.5)"><text x="86.07196807861328" y="0" font-family="Virgil, Segoe UI Emoji" font-size="28px" fill="#1fb2a6" text-anchor="middle" style="white-space: pre;" direction="ltr" dominant-baseline="text-before-edge">React Hooks</text></g><g stroke-linecap="round"><g transform="translate(433.9616746109275 372.18768185895584) rotate(0 55.544190923296014 99.11622885424126)"><path d="M-2.43 1.2 C36.19 62.73, 68.63 127.83, 110.74 195.41" stroke="#1fb2a6" stroke-width="4.5" fill="none" stroke-dasharray="8 12"></path></g><g transform="translate(433.9616746109275 372.18768185895584) rotate(0 55.544190923296014 99.11622885424126)"><path d="M89.97 180.28 C98.74 184.44, 103.27 190.84, 110.54 193.76" stroke="#1fb2a6" stroke-width="4.5" fill="none"></path></g><g transform="translate(433.9616746109275 372.18768185895584) rotate(0 55.544190923296014 99.11622885424126)"><path d="M104.67 171.55 C108.76 178.45, 108.64 187.61, 110.54 193.76" stroke="#1fb2a6" stroke-width="4.5" fill="none"></path></g></g><mask></mask><g transform="translate(538.6499099731445 657.3000545501709) rotate(0 132.6079559326172 17.5)"><text x="0" y="0" font-family="Virgil, Segoe UI Emoji" font-size="28px" fill="#1fb2a6" text-anchor="start" style="white-space: pre;" direction="ltr" dominant-baseline="text-before-edge">...And so much more</text></g><g stroke-linecap="round" transform="translate(262.04991912841797 237.00016975402832) rotate(0 83.00003051757812 126.99999809265137)"><path d="M110.79 8.12 C120.07 11.06, 129.67 19.65, 137.43 29.2 C145.18 38.75, 152.46 52.1, 157.32 65.43 C162.18 78.76, 165.24 94.09, 166.58 109.17 C167.91 124.26, 167.85 140.7, 165.34 155.94 C162.84 171.19, 157.7 187.99, 151.53 200.65 C145.36 213.31, 136.66 223.3, 128.34 231.88 C120.01 240.46, 111.16 248.8, 101.6 252.12 C92.05 255.43, 80.75 254.3, 70.98 251.77 C61.21 249.24, 51.81 244.42, 42.96 236.96 C34.12 229.5, 24.56 218.91, 17.91 207.01 C11.27 195.11, 6.12 179.81, 3.1 165.57 C0.08 151.33, -1.12 136.51, -0.2 121.55 C0.73 106.58, 4.44 89.77, 8.66 75.78 C12.87 61.8, 18.36 48.33, 25.09 37.64 C31.83 26.95, 39.76 18.21, 49.05 11.62 C58.35 5.04, 67.08 -3.95, 80.86 -1.88 C94.64 0.19, 120.7 15.77, 131.71 24.04 C142.72 32.3, 147.69 46.37, 146.92 47.72 M91.84 3.54 C101.61 3.85, 114.15 10.83, 123.22 17.13 C132.28 23.43, 140.31 30.37, 146.23 41.33 C152.15 52.3, 155.37 68.51, 158.73 82.91 C162.08 97.31, 165.98 112.57, 166.37 127.72 C166.76 142.86, 164.76 159.48, 161.08 173.76 C157.4 188.04, 151.64 201.94, 144.29 213.39 C136.94 224.85, 125.94 235.64, 116.99 242.5 C108.03 249.35, 100.31 253.38, 90.57 254.53 C80.82 255.67, 68.44 253.97, 58.53 249.36 C48.63 244.75, 38.73 236.91, 31.13 226.87 C23.53 216.84, 17.87 202.72, 12.93 189.16 C8 175.6, 3.46 160.03, 1.51 145.52 C-0.44 131.02, -1.22 116.29, 1.23 102.14 C3.68 87.99, 10.67 73.4, 16.21 60.63 C21.75 47.87, 26.62 35.17, 34.47 25.55 C42.33 15.93, 54.09 6.85, 63.34 2.93 C72.59 -1, 84.91 1.63, 89.95 2 C94.99 2.37, 93.06 3.2, 93.57 5.15" stroke="#1fb2a6" stroke-width="4" fill="none"></path></g><g transform="translate(293.1100881165098 319.1976079846873) rotate(0 51.749977111816406 45)"><text x="51.749977111816406" y="0" font-family="Virgil, Segoe UI Emoji" font-size="36px" fill="#1fb2a6" text-anchor="middle" style="white-space: pre;" direction="ltr" dominant-baseline="text-before-edge">Acidic</text><text x="51.749977111816406" y="45" font-family="Virgil, Segoe UI Emoji" font-size="36px" fill="#1fb2a6" text-anchor="middle" style="white-space: pre;" direction="ltr" dominant-baseline="text-before-edge">Engine</text></g><g stroke-linecap="round"><g transform="translate(187.99993133544922 352.9597150306897) rotate(0 36.024940719062954 1.5651954211644181)"><path d="M-1.63 1.24 C21.57 0.68, 51.47 3.93, 74.98 4.26 M0.53 1.89 C19.34 0.6, 41.27 0.01, 70.11 3.45" stroke="#1fb2a6" stroke-width="4" fill="none"></path></g><g transform="translate(187.99993133544922 352.9597150306897) rotate(0 36.024940719062954 1.5651954211644181)"><path d="M45.16 10.56 C52.57 7.21, 63.38 6.03, 71.58 4.02 M46.23 10.88 C52.07 8.03, 59.53 5.36, 69.15 3.61" stroke="#1fb2a6" stroke-width="4" fill="none"></path></g><g transform="translate(187.99993133544922 352.9597150306897) rotate(0 36.024940719062954 1.5651954211644181)"><path d="M46.64 -6.48 C53.61 -3.9, 63.91 0.85, 71.58 4.02 M47.72 -6.15 C53.22 -3.97, 60.24 -1.61, 69.15 3.61" stroke="#1fb2a6" stroke-width="4" fill="none"></path></g></g><mask></mask><g transform="translate(572.3000106811523 12.499980926513672) rotate(0 82.06196594238281 22.5)"><text x="0" y="0" font-family="Virgil, Segoe UI Emoji" font-size="36px" fill="#1fb2a6" text-anchor="start" style="white-space: pre;" direction="ltr" dominant-baseline="text-before-edge">Generate</text></g><g transform="translate(310.05416107177734 10) rotate(0 60.353965759277344 22.5)"><text x="0" y="0" font-family="Virgil, Segoe UI Emoji" font-size="36px" fill="#1fb2a6" text-anchor="start" style="white-space: pre;" direction="ltr" dominant-baseline="text-before-edge">Compile</text></g><g transform="translate(46.72180938720703 21.499996185302734) rotate(0 48.58197784423828 22.5)"><text x="0" y="0" font-family="Virgil, Segoe UI Emoji" font-size="36px" fill="#1fb2a6" text-anchor="start" style="white-space: pre;" direction="ltr" dominant-baseline="text-before-edge">Model</text></g><g stroke-linecap="round"><g transform="translate(21.04993438720703 75.00009536743164) rotate(0 80 -1.0000038146972656)"><path d="M0.72 -1.34 C49.79 1.87, 103.5 -0.31, 158.94 -3.01 M-1.22 1.32 C42.35 1.61, 85.53 3.49, 158.82 -2.68" stroke="#1fb2a6" stroke-width="4" fill="none"></path></g></g><mask></mask><g stroke-linecap="round"><g transform="translate(557.1994140329555 67.22929908814191) rotate(0 97.50003814697266 -0.5000019073486328)"><path d="M-0.84 0.13 C50.58 -1.84, 91.83 -1.6, 192.56 -3.01 M-1.74 -0.69 C63.69 -2.97, 130.19 -0.47, 193.97 -1.25" stroke="#1fb2a6" stroke-width="4" fill="none"></path></g></g><mask></mask><g stroke-linecap="round"><g transform="translate(280.50065658579615 67.6362535081823) rotate(0 83.5000228881836 -1.0000085830688477)"><path d="M-1.85 1.93 C44.4 2.16, 86.25 3.09, 165.79 -0.22 M0.63 0.62 C57.49 3.15, 117.99 -0.97, 166.3 -1.68" stroke="#1fb2a6" stroke-width="4" fill="none"></path></g></g><mask></mask></svg>