<svg version="1.1" xmlns="http://www.w3.org/2000/svg" viewBox="0 0 980.9756082138783 696.8000240325928" width="2942.926824641635" height="2090.4000720977783" filter="invert(93%) hue-rotate(180deg)">
  <!-- svg-source:excalidraw -->
  
  <defs>
    <style class="style-fonts">
      @font-face {
        font-family: "Virgil";
        src: url("https://excalidraw.com/Virgil.woff2");
      }
      @font-face {
        font-family: "Cascadia";
        src: url("https://excalidraw.com/Cascadia.woff2");
      }
    </style>
    
  </defs>
  <g stroke-linecap="round" transform="translate(25.109816893077493 297.30008125305176) rotate(0 88.49996566772461 117.00002479553223)"><path d="M1.92 -0.16 C55.68 -3.53, 112.1 -1.27, 177.02 3.35 M0.48 0.44 C38.88 -3.14, 78.87 -3.7, 176.55 -0.39 M173.84 1.34 C174.72 76.51, 179.53 158.04, 173.82 235.8 M177.17 0.82 C178.71 89.42, 178.29 177.01, 175.64 235.08 M179.38 231.24 C112.99 233.83, 54.21 236.72, -1.55 236.91 M178.19 235.67 C135.93 233.62, 97.2 233.64, 1.95 232 M-3.14 236.11 C-5.8 150.85, -5.68 68.37, 1.83 -2.26 M0.65 234.18 C-0.46 186.76, 2.27 139.54, 0.21 -0.35" stroke="#1fb2a6" stroke-width="4" fill="none"></path></g><g transform="translate(64.16380630347788 391.800106048584) rotate(0 49.44597625732422 22.5)"><text x="49.44597625732422" y="0" font-family="Virgil, Segoe UI Emoji" font-size="36px" fill="#1fb2a6" text-anchor="middle" style="white-space: pre;" direction="ltr" dominant-baseline="text-before-edge">*.acid</text></g><g stroke-linecap="round" transform="translate(706.859794004894 101.50010871887207) rotate(0 120.50003051757812 55.5)"><path d="M27.75 0 C102.86 -0.83, 174.42 -2.68, 213.25 0 M27.75 0 C72.2 0.11, 121.03 -0.4, 213.25 0 M213.25 0 C230.61 -3.11, 241.8 5.66, 241 27.75 M213.25 0 C234.79 4.09, 244.51 9.23, 241 27.75 M241 27.75 C238.12 45.72, 245.54 61.05, 241 83.25 M241 27.75 C241.54 40.9, 241.21 55.7, 241 83.25 M241 83.25 C243.53 105.17, 232.4 110.02, 213.25 111 M241 83.25 C245.25 97.24, 228.9 108.39, 213.25 111 M213.25 111 C157.17 111.1, 106.17 110.24, 27.75 111 M213.25 111 C155.74 110.99, 95.2 109, 27.75 111 M27.75 111 C9.53 112.1, -2.15 102.44, 0 83.25 M27.75 111 C6.88 111.68, 3.98 103.51, 0 83.25 M0 83.25 C-0.9 71.88, 0.46 53.74, 0 27.75 M0 83.25 C1.97 61.36, 0.59 39.49, 0 27.75 M0 27.75 C-3.37 5.79, 11.53 1.91, 27.75 0 M0 27.75 C-3.2 10.14, 13.07 4.17, 27.75 0" stroke="#1fb2a6" stroke-width="4" fill="none"></path></g><g transform="translate(727.9038613877065 139.50010871887207) rotate(0 99.45596313476562 17.5)"><text x="99.45596313476562" y="0" font-family="Virgil, Segoe UI Emoji" font-size="28px" fill="#1fb2a6" text-anchor="middle" style="white-space: pre;" direction="ltr" dominant-baseline="text-before-edge">Prisma Schema</text></g><g stroke-linecap="round" transform="translate(707.659598692394 230.50003623962402) rotate(0 117.5 55.5)"><path d="M27.75 0 C85.16 5.76, 141.75 1.54, 207.25 0 M27.75 0 C98.72 -0.44, 167.91 -1.36, 207.25 0 M207.25 0 C223.62 2.97, 234.46 6.55, 235 27.75 M207.25 0 C224.85 3.91, 232.92 7.94, 235 27.75 M235 27.75 C237.87 43.65, 238.27 52.41, 235 83.25 M235 27.75 C234.02 44.22, 237.73 59.37, 235 83.25 M235 83.25 C232.83 98.32, 225.27 113.98, 207.25 111 M235 83.25 C233.88 104.42, 227.33 113.91, 207.25 111 M207.25 111 C141.72 106.19, 66.33 107.85, 27.75 111 M207.25 111 C153.81 109.51, 102.91 109.08, 27.75 111 M27.75 111 C9.91 114.09, -0.34 104.15, 0 83.25 M27.75 111 C9.95 109.56, -3.87 102.07, 0 83.25 M0 83.25 C-1.47 65.67, 4.05 48.44, 0 27.75 M0 83.25 C-0.03 70.14, 0.65 53.64, 0 27.75 M0 27.75 C3.44 7.98, 10.52 3.24, 27.75 0 M0 27.75 C-1.09 9.79, 7.13 -3.88, 27.75 0" stroke="#1fb2a6" stroke-width="4" fill="none"></path></g><g transform="translate(742.9656289658315 268.500036239624) rotate(0 82.1939697265625 17.5)"><text x="82.1939697265625" y="0" font-family="Virgil, Segoe UI Emoji" font-size="28px" fill="#1fb2a6" text-anchor="middle" style="white-space: pre;" direction="ltr" dominant-baseline="text-before-edge">Zod Schema</text></g><g stroke-linecap="round" transform="translate(710.8596719345815 367.10008811950684) rotate(0 117.5 55.5)"><path d="M27.75 0 C68.31 -1.21, 105.26 0.17, 207.25 0 M27.75 0 C96.82 -0.84, 162.52 2.92, 207.25 0 M207.25 0 C224.97 3.77, 232.38 7.12, 235 27.75 M207.25 0 C229.17 -0.62, 231.9 8.35, 235 27.75 M235 27.75 C231.39 49.91, 230.91 73.12, 235 83.25 M235 27.75 C235.24 50.99, 234.64 69.03, 235 83.25 M235 83.25 C238.01 105.38, 229.12 108.83, 207.25 111 M235 83.25 C231.06 101.2, 229.18 109.88, 207.25 111 M207.25 111 C146.41 113.92, 77.74 116.96, 27.75 111 M207.25 111 C170.87 110.7, 133 108.08, 27.75 111 M27.75 111 C12.64 112.55, 2.53 102.41, 0 83.25 M27.75 111 C12.81 110.61, 2.76 102.45, 0 83.25 M0 83.25 C2.03 66.19, 1.63 51.35, 0 27.75 M0 83.25 C-1.61 64.28, 0.13 47.45, 0 27.75 M0 27.75 C3.48 8.87, 9.44 3.44, 27.75 0 M0 27.75 C-1.46 10.72, 12.97 -1.09, 27.75 0" stroke="#1fb2a6" stroke-width="4" fill="none"></path></g><g transform="translate(735.0637200913197 405.10008811950684) rotate(0 93.29595184326172 17.5)"><text x="93.29595184326172" y="0" font-family="Virgil, Segoe UI Emoji" font-size="28px" fill="#1fb2a6" text-anchor="middle" style="white-space: pre;" direction="ltr" dominant-baseline="text-before-edge">GraphQL SDL</text></g><g stroke-linecap="round"><g transform="translate(602.3762805030447 410.3022164609456) rotate(0 49.77880787058001 -125.94473675417754)"><path d="M-0.36 0.29 C16.48 -41.67, 82.98 -210.12, 99.92 -252.18" stroke="#1fb2a6" stroke-width="4.5" fill="none" stroke-dasharray="8 12"></path></g><g transform="translate(602.3762805030447 410.3022164609456) rotate(0 49.77880787058001 -125.94473675417754)"><path d="M99.02 -222.2 C99.8 -229.71, 100.01 -233.48, 99.92 -252.18" stroke="#1fb2a6" stroke-width="4.5" fill="none"></path></g><g transform="translate(602.3762805030447 410.3022164609456) rotate(0 49.77880787058001 -125.94473675417754)"><path d="M79.96 -229.79 C84.57 -235.7, 88.64 -237.93, 99.92 -252.18" stroke="#1fb2a6" stroke-width="4.5" fill="none"></path></g></g><mask></mask><g stroke-linecap="round"><g transform="translate(601.4486688513753 403.1856804122935) rotate(0 53.37450277741601 -60.02659868165799)"><path d="M1.12 0.56 C18.7 -19.65, 88.38 -100.35, 105.63 -120.61" stroke="#1fb2a6" stroke-width="4.5" fill="none" stroke-dasharray="8 12"></path></g><g transform="translate(601.4486688513753 403.1856804122935) rotate(0 53.37450277741601 -60.02659868165799)"><path d="M95.06 -92.54 C99.12 -100.12, 102.89 -110.45, 105.63 -120.61" stroke="#1fb2a6" stroke-width="4.5" fill="none"></path></g><g transform="translate(601.4486688513753 403.1856804122935) rotate(0 53.37450277741601 -60.02659868165799)"><path d="M79.49 -105.91 C88.44 -109.5, 97.03 -115.68, 105.63 -120.61" stroke="#1fb2a6" stroke-width="4.5" fill="none"></path></g></g><mask></mask><g stroke-linecap="round"><g transform="translate(607.5157423955839 410.0610968775545) rotate(0 49.54249783071367 7.3885481731709035)"><path d="M0.16 0.15 C16.63 2.58, 82.45 12.2, 98.93 14.63" stroke="#1fb2a6" stroke-width="4.5" fill="none" stroke-dasharray="8 12"></path></g><g transform="translate(607.5157423955839 410.0610968775545) rotate(0 49.54249783071367 7.3885481731709035)"><path d="M69.55 20.69 C79.73 18.58, 89.18 16.71, 98.93 14.63" stroke="#1fb2a6" stroke-width="4.5" fill="none"></path></g><g transform="translate(607.5157423955839 410.0610968775545) rotate(0 49.54249783071367 7.3885481731709035)"><path d="M72.53 0.38 C81.71 5.11, 90.15 10.08, 98.93 14.63" stroke="#1fb2a6" stroke-width="4.5" fill="none"></path></g></g><mask></mask><g stroke-linecap="round" transform="translate(717.6597207627065 511.50006675720215) rotate(0 117.5 55.5)"><path d="M27.75 0 C91.04 2.33, 147.67 0.22, 207.25 0 M27.75 0 C90.44 1.51, 154.7 2.44, 207.25 0 M207.25 0 C222.34 -0.35, 231.28 8.89, 235 27.75 M207.25 0 C229.58 1.09, 230.8 12.2, 235 27.75 M235 27.75 C238.08 40.53, 236.46 57.06, 235 83.25 M235 27.75 C232.28 45.18, 234.67 63.68, 235 83.25 M235 83.25 C234.12 102.01, 223.14 107.01, 207.25 111 M235 83.25 C239.54 104.18, 225.62 107.23, 207.25 111 M207.25 111 C144.75 115.75, 84.76 108.71, 27.75 111 M207.25 111 C150.81 111.25, 94.4 110.48, 27.75 111 M27.75 111 C8.31 109.83, 2.25 102, 0 83.25 M27.75 111 C11.12 109.41, -3.8 98.75, 0 83.25 M0 83.25 C-1.34 65.08, -3.14 42.98, 0 27.75 M0 83.25 C0.17 70.96, -1.27 54.29, 0 27.75 M0 27.75 C2.53 10, 8.36 -0.23, 27.75 0 M0 27.75 C1.65 8.41, 8.4 -2.16, 27.75 0" stroke="#1fb2a6" stroke-width="4" fill="none"></path></g><g transform="translate(749.0877526840932 549.5000667572021) rotate(0 86.07196807861328 17.5)"><text x="86.07196807861328" y="0" font-family="Virgil, Segoe UI Emoji" font-size="28px" fill="#1fb2a6" text-anchor="middle" style="white-space: pre;" direction="ltr" dominant-baseline="text-before-edge">React Hooks</text></g><g stroke-linecap="round"><g transform="translate(606.0041424566573 411.3892744901425) rotate(0 51.45308690430227 81.5138421634046)"><path d="M-2.85 1.41 C35.03 52.18, 65.45 107.15, 105.75 161.62" stroke="#1fb2a6" stroke-width="4.5" fill="none" stroke-dasharray="8 12"></path></g><g transform="translate(606.0041424566573 411.3892744901425) rotate(0 51.45308690430227 81.5138421634046)"><path d="M78.39 145.73 C91.42 149.52, 96.01 157.78, 105.35 158.32" stroke="#1fb2a6" stroke-width="4.5" fill="none"></path></g><g transform="translate(606.0041424566573 411.3892744901425) rotate(0 51.45308690430227 81.5138421634046)"><path d="M95.24 134.02 C102.87 141.46, 102.12 153.42, 105.35 158.32" stroke="#1fb2a6" stroke-width="4.5" fill="none"></path></g></g><mask></mask><g transform="translate(705.759696348644 651.8000240325928) rotate(0 132.6079559326172 17.5)"><text x="0" y="0" font-family="Virgil, Segoe UI Emoji" font-size="28px" fill="#1fb2a6" text-anchor="start" style="white-space: pre;" direction="ltr" dominant-baseline="text-before-edge">...And so much more</text></g><g stroke-linecap="round" transform="translate(296.1597512802845 293.4999942779541) rotate(0 153.00003051757812 130.00000953674316)"><path d="M203.22 8.28 C218.05 10.56, 232.92 17.69, 245.64 25.44 C258.36 33.19, 270.42 43.9, 279.55 54.78 C288.68 65.65, 295.74 77.97, 300.41 90.68 C305.09 103.4, 307.98 117.33, 307.59 131.09 C307.21 144.85, 303.66 160.5, 298.12 173.25 C292.57 185.99, 283.78 196.87, 274.31 207.58 C264.83 218.29, 253.94 229.9, 241.26 237.5 C228.57 245.09, 213.12 249.54, 198.2 253.15 C183.27 256.77, 167.59 259.32, 151.71 259.18 C135.82 259.04, 118.09 256.7, 102.88 252.3 C87.67 247.9, 72.95 240.53, 60.45 232.79 C47.94 225.06, 36.52 216.53, 27.85 205.91 C19.17 195.29, 12.95 181.88, 8.42 169.08 C3.88 156.29, 0.79 142.42, 0.63 129.12 C0.46 115.82, 2.24 102.42, 7.43 89.28 C12.62 76.15, 21.98 60.94, 31.77 50.32 C41.57 39.7, 53.39 32.95, 66.22 25.55 C79.04 18.16, 93.67 10.32, 108.73 5.94 C123.79 1.56, 135.58 -3.16, 156.57 -0.74 C177.56 1.67, 217.54 13.54, 234.68 20.45 C251.82 27.36, 260.47 38.76, 259.39 40.72 M272.89 51.28 C283.76 60.23, 292.27 73.44, 297.99 85.95 C303.71 98.46, 306.82 112.82, 307.21 126.33 C307.6 139.84, 305.41 153.86, 300.34 167.02 C295.27 180.17, 285.73 193.98, 276.77 205.25 C267.82 216.51, 258.97 226.53, 246.62 234.61 C234.27 242.69, 217.91 249.51, 202.67 253.73 C187.43 257.94, 170.68 260.25, 155.19 259.9 C139.69 259.55, 124.62 255.95, 109.72 251.63 C94.81 247.32, 78.96 241.12, 65.75 234.03 C52.54 226.94, 39.51 218.94, 30.44 209.09 C21.38 199.23, 16.39 187.47, 11.37 174.9 C6.34 162.33, 0.83 147.7, 0.31 133.69 C-0.21 119.67, 4.06 103.64, 8.24 90.82 C12.41 78.01, 16.34 67.24, 25.37 56.79 C34.39 46.34, 49.15 36.35, 62.38 28.12 C75.62 19.89, 90.45 11.71, 104.79 7.42 C119.12 3.14, 133.21 2.97, 148.39 2.42 C163.57 1.86, 180.86 0.83, 195.85 4.1 C210.84 7.37, 224.96 14.26, 238.31 22.03 C251.67 29.8, 269.91 45.59, 275.98 50.72 C282.05 55.86, 277.01 51.4, 274.75 52.83" stroke="#1fb2a6" stroke-width="4" fill="none"></path></g><g transform="translate(366.9104567547516 378.5761155169503) rotate(0 82.06196594238281 45)"><text x="82.06196594238281" y="0" font-family="Virgil, Segoe UI Emoji" font-size="36px" fill="#1fb2a6" text-anchor="middle" style="white-space: pre;" direction="ltr" dominant-baseline="text-before-edge">Acidic </text><text x="82.06196594238281" y="45" font-family="Virgil, Segoe UI Emoji" font-size="36px" fill="#1fb2a6" text-anchor="middle" style="white-space: pre;" direction="ltr" dominant-baseline="text-before-edge">Generate</text></g><g stroke-linecap="round"><g transform="translate(203.1097482285267 416.00663897660655) rotate(0 45.628591830471635 0.760281963187623)"><path d="M-0.24 0.18 C31.21 0.38, 63.63 1.1, 91.49 1.34 M0.08 0.28 C26.59 0.28, 53.57 0.41, 90.79 1.22" stroke="#1fb2a6" stroke-width="4" fill="none"></path></g><g transform="translate(203.1097482285267 416.00663897660655) rotate(0 45.628591830471635 0.760281963187623)"><path d="M62.18 11.15 C71.77 7.44, 82.35 4.36, 91.21 1.39 M62.49 11.24 C70.48 8.09, 78.95 4.99, 90.5 1.27" stroke="#1fb2a6" stroke-width="4" fill="none"></path></g><g transform="translate(203.1097482285267 416.00663897660655) rotate(0 45.628591830471635 0.760281963187623)"><path d="M62.55 -9.37 C72.04 -5.93, 82.49 -1.86, 91.21 1.39 M62.86 -9.27 C70.79 -6.37, 79.15 -3.41, 90.5 1.27" stroke="#1fb2a6" stroke-width="4" fill="none"></path></g></g><mask></mask><g transform="translate(760.4097055039174 10) rotate(0 57.9959716796875 22.5)"><text x="0" y="0" font-family="Virgil, Segoe UI Emoji" font-size="36px" fill="#1fb2a6" text-anchor="start" style="white-space: pre;" direction="ltr" dominant-baseline="text-before-edge">Plugins</text></g><g transform="translate(326.16373382422984 11.49998664855957) rotate(0 138.07797241210938 22.5)"><text x="0" y="0" font-family="Virgil, Segoe UI Emoji" font-size="36px" fill="#1fb2a6" text-anchor="start" style="white-space: pre;" direction="ltr" dominant-baseline="text-before-edge">Generator Tool</text></g><g transform="translate(26.831702574229837 16.000032424926758) rotate(0 86.43595123291016 22.5)"><text x="0" y="0" font-family="Virgil, Segoe UI Emoji" font-size="36px" fill="#1fb2a6" text-anchor="start" style="white-space: pre;" direction="ltr" dominant-baseline="text-before-edge">Model File</text></g><g stroke-linecap="round"><g transform="translate(10.159766539073587 64.50005531311035) rotate(0 102.85068820093127 -0.9792323309397659)"><path d="M0.09 -0.18 C65.98 -0.32, 132.46 -1.16, 205.86 -2.13 M-0.16 0.17 C54.95 -0.16, 110.02 -0.38, 205.84 -2.09" stroke="#1fb2a6" stroke-width="4" fill="none"></path></g></g><mask></mask><g stroke-linecap="round"><g transform="translate(742.3090783381424 59.72924186768293) rotate(0 79.29920150746557 -0.6361695848424631)"><path d="M-0.12 0.02 C38.57 -0.49, 75.79 -0.66, 158.65 -1.29 M-0.25 -0.1 C52.7 -0.67, 105.8 -0.59, 158.85 -1.04" stroke="#1fb2a6" stroke-width="4" fill="none"></path></g></g><mask></mask><g stroke-linecap="round"><g transform="translate(312.6104429612955 63.13621726855829) rotate(0 154.86190352196587 -1.8774587981965567)"><path d="M-0.2 0.21 C80.43 -0.47, 160.58 -1.34, 309.87 -3.81 M0.07 0.07 C109.31 -0.8, 218.95 -2.58, 309.92 -3.96" stroke="#1fb2a6" stroke-width="4" fill="none"></path></g></g><mask></mask></svg>